<svg width="250" height="167" viewBox="0 0 250 167" fill="none" xmlns="http://www.w3.org/2000/svg">
<rect x="78" width="94" height="94" rx="47" fill="#D8DAFD"/>
<path d="M147.302 37.2588C147.366 36.7716 147.4 36.2844 147.4 35.8C147.4 29.1388 141.4 23.7936 134.741 24.698C132.801 21.2456 129.105 19 125 19C120.895 19 117.199 21.2456 115.259 24.698C108.586 23.7936 102.6 29.1388 102.6 35.8C102.6 36.2844 102.634 36.7716 102.698 37.2588C99.2456 39.202 97 42.898 97 47C97 51.102 99.2456 54.798 102.698 56.7412C102.633 57.2248 102.601 57.7121 102.6 58.2C102.6 64.8612 108.586 70.1924 115.259 69.302C117.199 72.7544 120.895 75 125 75C129.105 75 132.801 72.7544 134.741 69.302C141.4 70.1924 147.4 64.8612 147.4 58.2C147.4 57.7156 147.366 57.2284 147.302 56.7412C150.754 54.798 153 51.102 153 47C153 42.898 150.754 39.202 147.302 37.2588ZM122.074 59.3648L111.806 48.9656L115.794 45.0344L122.113 51.4352L134.229 39.412L138.171 43.388L122.074 59.3648Z" fill="#3B44F6"/>
<path d="M29.7874 136V124.4H25.7874V122H36.5074V124.4H32.3874V136H29.7874ZM37.4263 136V125.46H39.8463L39.8863 128.82L39.5463 128.06C39.693 127.527 39.9463 127.047 40.3063 126.62C40.6663 126.193 41.0797 125.86 41.5463 125.62C42.0263 125.367 42.5263 125.24 43.0463 125.24C43.273 125.24 43.4863 125.26 43.6863 125.3C43.8997 125.34 44.073 125.387 44.2063 125.44L43.5463 128.14C43.3997 128.06 43.2197 127.993 43.0063 127.94C42.793 127.887 42.5797 127.86 42.3663 127.86C42.033 127.86 41.713 127.927 41.4063 128.06C41.113 128.18 40.853 128.353 40.6263 128.58C40.3997 128.807 40.2197 129.073 40.0863 129.38C39.9663 129.673 39.9063 130.007 39.9063 130.38V136H37.4263ZM49.5043 136.2C48.7443 136.2 48.0843 136.033 47.5243 135.7C46.9643 135.353 46.5376 134.867 46.2443 134.24C45.951 133.6 45.8043 132.84 45.8043 131.96V125.46H48.2643V131.44C48.2643 132 48.351 132.48 48.5243 132.88C48.6976 133.267 48.951 133.567 49.2843 133.78C49.6176 133.993 50.0176 134.1 50.4843 134.1C50.831 134.1 51.1443 134.047 51.4243 133.94C51.7176 133.82 51.971 133.66 52.1843 133.46C52.3976 133.247 52.5643 133 52.6843 132.72C52.8043 132.427 52.8643 132.113 52.8643 131.78V125.46H55.3243V136H52.9243L52.8843 133.8L53.3243 133.56C53.1643 134.067 52.891 134.52 52.5043 134.92C52.131 135.307 51.6843 135.62 51.1643 135.86C50.6443 136.087 50.091 136.2 49.5043 136.2ZM61.7276 136.2C60.7942 136.2 59.9542 136.047 59.2076 135.74C58.4742 135.42 57.8742 134.967 57.4076 134.38L59.0076 133C59.4076 133.453 59.8542 133.78 60.3476 133.98C60.8409 134.18 61.3609 134.28 61.9076 134.28C62.1342 134.28 62.3342 134.253 62.5076 134.2C62.6942 134.147 62.8542 134.067 62.9876 133.96C63.1209 133.853 63.2209 133.733 63.2876 133.6C63.3676 133.453 63.4076 133.293 63.4076 133.12C63.4076 132.8 63.2876 132.547 63.0476 132.36C62.9142 132.267 62.7009 132.167 62.4076 132.06C62.1276 131.953 61.7609 131.847 61.3076 131.74C60.5876 131.553 59.9876 131.34 59.5076 131.1C59.0276 130.847 58.6542 130.567 58.3876 130.26C58.1609 130.007 57.9876 129.72 57.8676 129.4C57.7609 129.08 57.7076 128.733 57.7076 128.36C57.7076 127.893 57.8076 127.473 58.0076 127.1C58.2209 126.713 58.5076 126.38 58.8676 126.1C59.2276 125.82 59.6476 125.607 60.1276 125.46C60.6076 125.313 61.1076 125.24 61.6276 125.24C62.1609 125.24 62.6742 125.307 63.1676 125.44C63.6742 125.573 64.1409 125.767 64.5676 126.02C65.0076 126.26 65.3809 126.553 65.6876 126.9L64.3276 128.4C64.0742 128.16 63.7942 127.947 63.4876 127.76C63.1942 127.573 62.8942 127.427 62.5876 127.32C62.2809 127.2 61.9942 127.14 61.7276 127.14C61.4742 127.14 61.2476 127.167 61.0476 127.22C60.8476 127.26 60.6809 127.327 60.5476 127.42C60.4142 127.513 60.3076 127.633 60.2276 127.78C60.1609 127.913 60.1276 128.073 60.1276 128.26C60.1409 128.42 60.1809 128.573 60.2476 128.72C60.3276 128.853 60.4342 128.967 60.5676 129.06C60.7142 129.153 60.9342 129.26 61.2276 129.38C61.5209 129.5 61.9009 129.613 62.3676 129.72C63.0209 129.893 63.5676 130.087 64.0076 130.3C64.4476 130.513 64.7942 130.76 65.0476 131.04C65.3009 131.28 65.4809 131.56 65.5876 131.88C65.6942 132.2 65.7476 132.553 65.7476 132.94C65.7476 133.567 65.5676 134.127 65.2076 134.62C64.8609 135.113 64.3809 135.5 63.7676 135.78C63.1676 136.06 62.4876 136.2 61.7276 136.2ZM69.0546 136V122.78H71.5146V136H69.0546ZM66.9746 127.74V125.46H73.8146V127.74H66.9746ZM80.5304 136.2C79.4237 136.2 78.4437 135.967 77.5904 135.5C76.7504 135.033 76.0904 134.4 75.6104 133.6C75.1437 132.787 74.9104 131.86 74.9104 130.82C74.9104 129.993 75.0437 129.24 75.3104 128.56C75.5771 127.88 75.9437 127.293 76.4104 126.8C76.8904 126.293 77.4571 125.907 78.1104 125.64C78.7771 125.36 79.5037 125.22 80.2904 125.22C80.9837 125.22 81.6304 125.353 82.2304 125.62C82.8304 125.887 83.3504 126.253 83.7904 126.72C84.2304 127.173 84.5637 127.72 84.7904 128.36C85.0304 128.987 85.1437 129.673 85.1304 130.42L85.1104 131.28H76.5704L76.1104 129.6H83.0504L82.7304 129.94V129.5C82.6904 129.087 82.5571 128.727 82.3304 128.42C82.1037 128.1 81.8104 127.853 81.4504 127.68C81.1037 127.493 80.7171 127.4 80.2904 127.4C79.6371 127.4 79.0837 127.527 78.6304 127.78C78.1904 128.033 77.8571 128.4 77.6304 128.88C77.4037 129.347 77.2904 129.933 77.2904 130.64C77.2904 131.32 77.4304 131.913 77.7104 132.42C78.0037 132.927 78.4104 133.32 78.9304 133.6C79.4637 133.867 80.0837 134 80.7904 134C81.2837 134 81.7371 133.92 82.1504 133.76C82.5637 133.6 83.0104 133.313 83.4904 132.9L84.7104 134.6C84.3504 134.933 83.9371 135.22 83.4704 135.46C83.0171 135.687 82.5371 135.867 82.0304 136C81.5237 136.133 81.0237 136.2 80.5304 136.2ZM91.5491 136.2C90.6158 136.2 89.7758 135.967 89.0291 135.5C88.2958 135.02 87.7091 134.373 87.2691 133.56C86.8425 132.733 86.6291 131.787 86.6291 130.72C86.6291 129.667 86.8425 128.727 87.2691 127.9C87.6958 127.073 88.2758 126.427 89.0091 125.96C89.7558 125.48 90.5958 125.24 91.5291 125.24C92.0358 125.24 92.5225 125.32 92.9891 125.48C93.4691 125.64 93.8958 125.86 94.2691 126.14C94.6425 126.407 94.9358 126.707 95.1491 127.04C95.3758 127.373 95.5025 127.72 95.5291 128.08L94.8691 128.16V121.2H97.3291V136H94.9491L94.8891 133.52L95.3691 133.56C95.3558 133.893 95.2358 134.213 95.0091 134.52C94.7958 134.827 94.5158 135.107 94.1691 135.36C93.8225 135.613 93.4158 135.82 92.9491 135.98C92.4958 136.127 92.0291 136.2 91.5491 136.2ZM92.0291 134.12C92.6025 134.12 93.1091 133.973 93.5491 133.68C93.9891 133.387 94.3291 132.987 94.5691 132.48C94.8225 131.973 94.9491 131.387 94.9491 130.72C94.9491 130.067 94.8225 129.487 94.5691 128.98C94.3291 128.46 93.9891 128.06 93.5491 127.78C93.1091 127.487 92.6025 127.34 92.0291 127.34C91.4558 127.34 90.9491 127.487 90.5091 127.78C90.0691 128.06 89.7225 128.46 89.4691 128.98C89.2291 129.487 89.1091 130.067 89.1091 130.72C89.1091 131.387 89.2291 131.973 89.4691 132.48C89.7225 132.987 90.0691 133.387 90.5091 133.68C90.9491 133.973 91.4558 134.12 92.0291 134.12ZM111.821 136.2C111.354 136.2 110.894 136.133 110.441 136C110.001 135.853 109.601 135.66 109.241 135.42C108.881 135.18 108.581 134.913 108.341 134.62C108.101 134.313 107.941 134.007 107.861 133.7L108.441 133.44L108.381 135.96H106.001V121.2H108.461V127.9L108.021 127.7C108.087 127.38 108.234 127.08 108.461 126.8C108.701 126.507 108.994 126.247 109.341 126.02C109.687 125.78 110.067 125.593 110.481 125.46C110.894 125.313 111.314 125.24 111.741 125.24C112.687 125.24 113.521 125.473 114.241 125.94C114.974 126.407 115.547 127.053 115.961 127.88C116.387 128.707 116.601 129.647 116.601 130.7C116.601 131.767 116.394 132.713 115.981 133.54C115.567 134.367 114.994 135.02 114.261 135.5C113.541 135.967 112.727 136.2 111.821 136.2ZM111.301 134.04C111.861 134.04 112.361 133.9 112.801 133.62C113.241 133.327 113.587 132.933 113.841 132.44C114.094 131.933 114.221 131.353 114.221 130.7C114.221 130.06 114.094 129.493 113.841 129C113.601 128.507 113.261 128.12 112.821 127.84C112.381 127.56 111.874 127.42 111.301 127.42C110.727 127.42 110.221 127.56 109.781 127.84C109.341 128.12 108.994 128.507 108.741 129C108.487 129.493 108.361 130.06 108.361 130.7C108.361 131.353 108.487 131.933 108.741 132.44C108.994 132.933 109.341 133.327 109.781 133.62C110.221 133.9 110.727 134.04 111.301 134.04ZM120.003 140.6L122.243 135.42L122.263 137.06L117.063 125.46H119.903L122.803 132.34C122.896 132.513 122.99 132.747 123.083 133.04C123.176 133.32 123.256 133.6 123.323 133.88L122.823 134.04C122.916 133.787 123.016 133.52 123.123 133.24C123.23 132.947 123.33 132.647 123.423 132.34L125.903 125.46H128.763L124.363 136L122.563 140.6H120.003ZM139.036 135.02V123.66L139.776 124.62L136.936 126.06L136.356 123.78L140.176 121.8H141.616V135.02H139.036ZM136.696 136V133.6H144.016V136H136.696ZM151.486 136.2C150.352 136.2 149.379 135.913 148.566 135.34C147.766 134.753 147.146 133.927 146.706 132.86C146.279 131.78 146.066 130.493 146.066 129C146.066 127.507 146.279 126.227 146.706 125.16C147.146 124.08 147.766 123.253 148.566 122.68C149.379 122.093 150.352 121.8 151.486 121.8C152.619 121.8 153.592 122.093 154.406 122.68C155.219 123.253 155.839 124.08 156.266 125.16C156.706 126.227 156.926 127.507 156.926 129C156.926 130.493 156.706 131.78 156.266 132.86C155.839 133.927 155.219 134.753 154.406 135.34C153.592 135.913 152.619 136.2 151.486 136.2ZM151.486 133.92C152.419 133.92 153.139 133.493 153.646 132.64C154.166 131.773 154.426 130.56 154.426 129C154.426 127.427 154.166 126.207 153.646 125.34C153.139 124.473 152.419 124.04 151.486 124.04C150.552 124.04 149.826 124.473 149.306 125.34C148.799 126.207 148.546 127.427 148.546 129C148.546 130.56 148.799 131.773 149.306 132.64C149.826 133.493 150.552 133.92 151.486 133.92ZM164.103 136.2C162.969 136.2 161.996 135.913 161.183 135.34C160.383 134.753 159.763 133.927 159.323 132.86C158.896 131.78 158.683 130.493 158.683 129C158.683 127.507 158.896 126.227 159.323 125.16C159.763 124.08 160.383 123.253 161.183 122.68C161.996 122.093 162.969 121.8 164.103 121.8C165.236 121.8 166.209 122.093 167.023 122.68C167.836 123.253 168.456 124.08 168.883 125.16C169.323 126.227 169.543 127.507 169.543 129C169.543 130.493 169.323 131.78 168.883 132.86C168.456 133.927 167.836 134.753 167.023 135.34C166.209 135.913 165.236 136.2 164.103 136.2ZM164.103 133.92C165.036 133.92 165.756 133.493 166.263 132.64C166.783 131.773 167.043 130.56 167.043 129C167.043 127.427 166.783 126.207 166.263 125.34C165.756 124.473 165.036 124.04 164.103 124.04C163.169 124.04 162.443 124.473 161.923 125.34C161.416 126.207 161.163 127.427 161.163 129C161.163 130.56 161.416 131.773 161.923 132.64C162.443 133.493 163.169 133.92 164.103 133.92ZM172.8 136.22C172.32 136.22 171.947 136.08 171.68 135.8C171.427 135.52 171.3 135.127 171.3 134.62C171.3 134.153 171.433 133.773 171.7 133.48C171.98 133.173 172.347 133.02 172.8 133.02C173.28 133.02 173.647 133.16 173.9 133.44C174.167 133.707 174.3 134.1 174.3 134.62C174.3 135.087 174.16 135.473 173.88 135.78C173.613 136.073 173.253 136.22 172.8 136.22ZM181.486 136.2C180.352 136.2 179.379 135.913 178.566 135.34C177.766 134.753 177.146 133.927 176.706 132.86C176.279 131.78 176.066 130.493 176.066 129C176.066 127.507 176.279 126.227 176.706 125.16C177.146 124.08 177.766 123.253 178.566 122.68C179.379 122.093 180.352 121.8 181.486 121.8C182.619 121.8 183.592 122.093 184.406 122.68C185.219 123.253 185.839 124.08 186.266 125.16C186.706 126.227 186.926 127.507 186.926 129C186.926 130.493 186.706 131.78 186.266 132.86C185.839 133.927 185.219 134.753 184.406 135.34C183.592 135.913 182.619 136.2 181.486 136.2ZM181.486 133.92C182.419 133.92 183.139 133.493 183.646 132.64C184.166 131.773 184.426 130.56 184.426 129C184.426 127.427 184.166 126.207 183.646 125.34C183.139 124.473 182.419 124.04 181.486 124.04C180.552 124.04 179.826 124.473 179.306 125.34C178.799 126.207 178.546 127.427 178.546 129C178.546 130.56 178.799 131.773 179.306 132.64C179.826 133.493 180.552 133.92 181.486 133.92ZM194.103 136.2C192.969 136.2 191.996 135.913 191.183 135.34C190.383 134.753 189.763 133.927 189.323 132.86C188.896 131.78 188.683 130.493 188.683 129C188.683 127.507 188.896 126.227 189.323 125.16C189.763 124.08 190.383 123.253 191.183 122.68C191.996 122.093 192.969 121.8 194.103 121.8C195.236 121.8 196.209 122.093 197.023 122.68C197.836 123.253 198.456 124.08 198.883 125.16C199.323 126.227 199.543 127.507 199.543 129C199.543 130.493 199.323 131.78 198.883 132.86C198.456 133.927 197.836 134.753 197.023 135.34C196.209 135.913 195.236 136.2 194.103 136.2ZM194.103 133.92C195.036 133.92 195.756 133.493 196.263 132.64C196.783 131.773 197.043 130.56 197.043 129C197.043 127.427 196.783 126.207 196.263 125.34C195.756 124.473 195.036 124.04 194.103 124.04C193.169 124.04 192.443 124.473 191.923 125.34C191.416 126.207 191.163 127.427 191.163 129C191.163 130.56 191.416 131.773 191.923 132.64C192.443 133.493 193.169 133.92 194.103 133.92ZM206.72 136.2C205.587 136.2 204.613 135.913 203.8 135.34C203 134.753 202.38 133.927 201.94 132.86C201.513 131.78 201.3 130.493 201.3 129C201.3 127.507 201.513 126.227 201.94 125.16C202.38 124.08 203 123.253 203.8 122.68C204.613 122.093 205.587 121.8 206.72 121.8C207.853 121.8 208.827 122.093 209.64 122.68C210.453 123.253 211.073 124.08 211.5 125.16C211.94 126.227 212.16 127.507 212.16 129C212.16 130.493 211.94 131.78 211.5 132.86C211.073 133.927 210.453 134.753 209.64 135.34C208.827 135.913 207.853 136.2 206.72 136.2ZM206.72 133.92C207.653 133.92 208.373 133.493 208.88 132.64C209.4 131.773 209.66 130.56 209.66 129C209.66 127.427 209.4 126.207 208.88 125.34C208.373 124.473 207.653 124.04 206.72 124.04C205.787 124.04 205.06 124.473 204.54 125.34C204.033 126.207 203.78 127.427 203.78 129C203.78 130.56 204.033 131.773 204.54 132.64C205.06 133.493 205.787 133.92 206.72 133.92ZM213.957 131.42V129.34H223.977V131.42H213.957ZM217.777 135.18V125.48H220.137V135.18H217.777ZM80.1788 162.2C79.1921 162.2 78.3054 161.96 77.5188 161.48C76.7321 161 76.1121 160.347 75.6588 159.52C75.2054 158.693 74.9788 157.76 74.9788 156.72C74.9788 155.68 75.2054 154.747 75.6588 153.92C76.1121 153.093 76.7321 152.44 77.5188 151.96C78.3054 151.48 79.1921 151.24 80.1788 151.24C81.1254 151.24 81.9854 151.42 82.7588 151.78C83.5321 152.14 84.1321 152.64 84.5588 153.28L83.1988 154.92C82.9988 154.64 82.7454 154.387 82.4388 154.16C82.1321 153.933 81.8054 153.753 81.4588 153.62C81.1121 153.487 80.7654 153.42 80.4188 153.42C79.8321 153.42 79.3054 153.567 78.8388 153.86C78.3854 154.14 78.0254 154.533 77.7588 155.04C77.4921 155.533 77.3588 156.093 77.3588 156.72C77.3588 157.347 77.4921 157.907 77.7588 158.4C78.0388 158.893 78.4121 159.287 78.8788 159.58C79.3454 159.873 79.8654 160.02 80.4388 160.02C80.7854 160.02 81.1188 159.967 81.4388 159.86C81.7721 159.74 82.0854 159.573 82.3788 159.36C82.6721 159.147 82.9454 158.88 83.1988 158.56L84.5588 160.22C84.1054 160.807 83.4788 161.287 82.6788 161.66C81.8921 162.02 81.0588 162.2 80.1788 162.2ZM90.1 162.2C89.34 162.2 88.68 162.033 88.12 161.7C87.56 161.353 87.1333 160.867 86.84 160.24C86.5467 159.6 86.4 158.84 86.4 157.96V151.46H88.86V157.44C88.86 158 88.9467 158.48 89.12 158.88C89.2933 159.267 89.5467 159.567 89.88 159.78C90.2133 159.993 90.6133 160.1 91.08 160.1C91.4267 160.1 91.74 160.047 92.02 159.94C92.3133 159.82 92.5667 159.66 92.78 159.46C92.9933 159.247 93.16 159 93.28 158.72C93.4 158.427 93.46 158.113 93.46 157.78V151.46H95.92V162H93.52L93.48 159.8L93.92 159.56C93.76 160.067 93.4867 160.52 93.1 160.92C92.7267 161.307 92.28 161.62 91.76 161.86C91.24 162.087 90.6867 162.2 90.1 162.2ZM102.323 162.2C101.39 162.2 100.55 162.047 99.8033 161.74C99.0699 161.42 98.4699 160.967 98.0033 160.38L99.6033 159C100.003 159.453 100.45 159.78 100.943 159.98C101.437 160.18 101.957 160.28 102.503 160.28C102.73 160.28 102.93 160.253 103.103 160.2C103.29 160.147 103.45 160.067 103.583 159.96C103.717 159.853 103.817 159.733 103.883 159.6C103.963 159.453 104.003 159.293 104.003 159.12C104.003 158.8 103.883 158.547 103.643 158.36C103.51 158.267 103.297 158.167 103.003 158.06C102.723 157.953 102.357 157.847 101.903 157.74C101.183 157.553 100.583 157.34 100.103 157.1C99.6233 156.847 99.2499 156.567 98.9833 156.26C98.7566 156.007 98.5833 155.72 98.4633 155.4C98.3566 155.08 98.3033 154.733 98.3033 154.36C98.3033 153.893 98.4033 153.473 98.6033 153.1C98.8166 152.713 99.1033 152.38 99.4633 152.1C99.8233 151.82 100.243 151.607 100.723 151.46C101.203 151.313 101.703 151.24 102.223 151.24C102.757 151.24 103.27 151.307 103.763 151.44C104.27 151.573 104.737 151.767 105.163 152.02C105.603 152.26 105.977 152.553 106.283 152.9L104.923 154.4C104.67 154.16 104.39 153.947 104.083 153.76C103.79 153.573 103.49 153.427 103.183 153.32C102.877 153.2 102.59 153.14 102.323 153.14C102.07 153.14 101.843 153.167 101.643 153.22C101.443 153.26 101.277 153.327 101.143 153.42C101.01 153.513 100.903 153.633 100.823 153.78C100.757 153.913 100.723 154.073 100.723 154.26C100.737 154.42 100.777 154.573 100.843 154.72C100.923 154.853 101.03 154.967 101.163 155.06C101.31 155.153 101.53 155.26 101.823 155.38C102.117 155.5 102.497 155.613 102.963 155.72C103.617 155.893 104.163 156.087 104.603 156.3C105.043 156.513 105.39 156.76 105.643 157.04C105.897 157.28 106.077 157.56 106.183 157.88C106.29 158.2 106.343 158.553 106.343 158.94C106.343 159.567 106.163 160.127 105.803 160.62C105.457 161.113 104.977 161.5 104.363 161.78C103.763 162.06 103.083 162.2 102.323 162.2ZM109.65 162V148.78H112.11V162H109.65ZM107.57 153.74V151.46H114.41V153.74H107.57ZM121.006 162.2C119.953 162.2 119.013 161.967 118.186 161.5C117.359 161.02 116.706 160.367 116.226 159.54C115.746 158.713 115.506 157.773 115.506 156.72C115.506 155.667 115.746 154.727 116.226 153.9C116.706 153.073 117.359 152.427 118.186 151.96C119.013 151.48 119.953 151.24 121.006 151.24C122.046 151.24 122.979 151.48 123.806 151.96C124.633 152.427 125.279 153.073 125.746 153.9C126.226 154.727 126.466 155.667 126.466 156.72C126.466 157.773 126.226 158.713 125.746 159.54C125.279 160.367 124.633 161.02 123.806 161.5C122.979 161.967 122.046 162.2 121.006 162.2ZM121.006 160.02C121.579 160.02 122.086 159.873 122.526 159.58C122.979 159.287 123.333 158.893 123.586 158.4C123.853 157.907 123.979 157.347 123.966 156.72C123.979 156.08 123.853 155.513 123.586 155.02C123.333 154.527 122.979 154.14 122.526 153.86C122.086 153.567 121.579 153.42 121.006 153.42C120.433 153.42 119.913 153.567 119.446 153.86C118.993 154.14 118.639 154.533 118.386 155.04C118.133 155.533 118.006 156.093 118.006 156.72C118.006 157.347 118.133 157.907 118.386 158.4C118.639 158.893 118.993 159.287 119.446 159.58C119.913 159.873 120.433 160.02 121.006 160.02ZM128.627 162V151.46H131.047L131.087 153.58L130.687 153.74C130.807 153.393 130.987 153.073 131.227 152.78C131.467 152.473 131.753 152.213 132.087 152C132.42 151.773 132.773 151.6 133.147 151.48C133.52 151.347 133.9 151.28 134.287 151.28C134.86 151.28 135.367 151.373 135.807 151.56C136.26 151.733 136.633 152.013 136.927 152.4C137.233 152.787 137.46 153.28 137.607 153.88L137.227 153.8L137.387 153.48C137.533 153.16 137.74 152.873 138.007 152.62C138.273 152.353 138.573 152.12 138.907 151.92C139.24 151.707 139.587 151.547 139.947 151.44C140.32 151.333 140.687 151.28 141.047 151.28C141.847 151.28 142.513 151.44 143.047 151.76C143.58 152.08 143.98 152.567 144.247 153.22C144.513 153.873 144.647 154.68 144.647 155.64V162H142.167V155.8C142.167 155.267 142.093 154.827 141.947 154.48C141.813 154.133 141.6 153.88 141.307 153.72C141.027 153.547 140.673 153.46 140.247 153.46C139.913 153.46 139.593 153.52 139.287 153.64C138.993 153.747 138.74 153.907 138.527 154.12C138.313 154.32 138.147 154.553 138.027 154.82C137.907 155.087 137.847 155.38 137.847 155.7V162H135.367V155.78C135.367 155.273 135.293 154.853 135.147 154.52C135 154.173 134.787 153.913 134.507 153.74C134.227 153.553 133.887 153.46 133.487 153.46C133.153 153.46 132.84 153.52 132.547 153.64C132.253 153.747 132 153.9 131.787 154.1C131.573 154.3 131.407 154.533 131.287 154.8C131.167 155.067 131.107 155.36 131.107 155.68V162H128.627ZM152.318 162.2C151.211 162.2 150.231 161.967 149.378 161.5C148.538 161.033 147.878 160.4 147.398 159.6C146.931 158.787 146.698 157.86 146.698 156.82C146.698 155.993 146.831 155.24 147.098 154.56C147.364 153.88 147.731 153.293 148.198 152.8C148.678 152.293 149.244 151.907 149.898 151.64C150.564 151.36 151.291 151.22 152.078 151.22C152.771 151.22 153.418 151.353 154.018 151.62C154.618 151.887 155.138 152.253 155.578 152.72C156.018 153.173 156.351 153.72 156.578 154.36C156.818 154.987 156.931 155.673 156.918 156.42L156.898 157.28H148.358L147.898 155.6H154.838L154.518 155.94V155.5C154.478 155.087 154.344 154.727 154.118 154.42C153.891 154.1 153.598 153.853 153.238 153.68C152.891 153.493 152.504 153.4 152.078 153.4C151.424 153.4 150.871 153.527 150.418 153.78C149.978 154.033 149.644 154.4 149.418 154.88C149.191 155.347 149.078 155.933 149.078 156.64C149.078 157.32 149.218 157.913 149.498 158.42C149.791 158.927 150.198 159.32 150.718 159.6C151.251 159.867 151.871 160 152.578 160C153.071 160 153.524 159.92 153.938 159.76C154.351 159.6 154.798 159.313 155.278 158.9L156.497 160.6C156.138 160.933 155.724 161.22 155.258 161.46C154.804 161.687 154.324 161.867 153.818 162C153.311 162.133 152.811 162.2 152.318 162.2ZM159.096 162V151.46H161.516L161.556 154.82L161.216 154.06C161.363 153.527 161.616 153.047 161.976 152.62C162.336 152.193 162.75 151.86 163.216 151.62C163.696 151.367 164.196 151.24 164.716 151.24C164.943 151.24 165.156 151.26 165.356 151.3C165.57 151.34 165.743 151.387 165.876 151.44L165.216 154.14C165.07 154.06 164.89 153.993 164.676 153.94C164.463 153.887 164.25 153.86 164.036 153.86C163.703 153.86 163.383 153.927 163.076 154.06C162.783 154.18 162.523 154.353 162.296 154.58C162.07 154.807 161.89 155.073 161.756 155.38C161.636 155.673 161.576 156.007 161.576 156.38V162H159.096ZM171.034 162.2C170.101 162.2 169.261 162.047 168.514 161.74C167.781 161.42 167.181 160.967 166.714 160.38L168.314 159C168.714 159.453 169.161 159.78 169.654 159.98C170.148 160.18 170.668 160.28 171.214 160.28C171.441 160.28 171.641 160.253 171.814 160.2C172.001 160.147 172.161 160.067 172.294 159.96C172.428 159.853 172.528 159.733 172.594 159.6C172.674 159.453 172.714 159.293 172.714 159.12C172.714 158.8 172.594 158.547 172.354 158.36C172.221 158.267 172.008 158.167 171.714 158.06C171.434 157.953 171.068 157.847 170.614 157.74C169.894 157.553 169.294 157.34 168.814 157.1C168.334 156.847 167.961 156.567 167.694 156.26C167.468 156.007 167.294 155.72 167.174 155.4C167.068 155.08 167.014 154.733 167.014 154.36C167.014 153.893 167.114 153.473 167.314 153.1C167.528 152.713 167.814 152.38 168.174 152.1C168.534 151.82 168.954 151.607 169.434 151.46C169.914 151.313 170.414 151.24 170.934 151.24C171.468 151.24 171.981 151.307 172.474 151.44C172.981 151.573 173.448 151.767 173.874 152.02C174.314 152.26 174.688 152.553 174.994 152.9L173.634 154.4C173.381 154.16 173.101 153.947 172.794 153.76C172.501 153.573 172.201 153.427 171.894 153.32C171.588 153.2 171.301 153.14 171.034 153.14C170.781 153.14 170.554 153.167 170.354 153.22C170.154 153.26 169.988 153.327 169.854 153.42C169.721 153.513 169.614 153.633 169.534 153.78C169.468 153.913 169.434 154.073 169.434 154.26C169.448 154.42 169.488 154.573 169.554 154.72C169.634 154.853 169.741 154.967 169.874 155.06C170.021 155.153 170.241 155.26 170.534 155.38C170.828 155.5 171.208 155.613 171.674 155.72C172.328 155.893 172.874 156.087 173.314 156.3C173.754 156.513 174.101 156.76 174.354 157.04C174.608 157.28 174.788 157.56 174.894 157.88C175.001 158.2 175.054 158.553 175.054 158.94C175.054 159.567 174.874 160.127 174.514 160.62C174.168 161.113 173.688 161.5 173.074 161.78C172.474 162.06 171.794 162.2 171.034 162.2Z" fill="#181818"/>
</svg>
